HIERARCHY
ROOT Hips
{
    OFFSET -0.1800 -22.3300 2.8200
    CHANNELS 6 Xposition Yposition Zposition Zrotation Yrotation Xrotation 
    JOINT LeftUpLeg
    {
        OFFSET -0.6800 6.9500 -9.1400
        CHANNELS 3 Zrotation Yrotation Xrotation
        JOINT LeftLeg
        {
            OFFSET -0.4500 3.4300 -37.5200
            CHANNELS 3 Zrotation Yrotation Xrotation
            JOINT LeftFoot
            {
                OFFSET -4.3700 -1.3600 -39.8000
                CHANNELS 3 Zrotation Yrotation Xrotation
                JOINT LeftToe
                {
                    OFFSET 11.9300 2.6400 -5.5800
                    CHANNELS 3 Zrotation Yrotation Xrotation
                    End Site
                    {
                        OFFSET 0.0000 0.0000 0.0000
                    }
                }
            }
        }
    }
    JOINT RightUpLeg
    {
        OFFSET -0.4300 -6.7700 -9.0500
        CHANNELS 3 Zrotation Yrotation Xrotation
        JOINT RightLeg
        {
            OFFSET -0.8900 -3.8300 -38.2600
            CHANNELS 3 Zrotation Yrotation Xrotation
            JOINT RightFoot
            {
                OFFSET -4.2300 1.5800 -39.8400
                CHANNELS 3 Zrotation Yrotation Xrotation
                JOINT RightToe
                {
                    OFFSET 12.3300 -2.5400 -4.8100
                    CHANNELS 3 Zrotation Yrotation Xrotation
                    End Site
                    {
                        OFFSET 0.0000 0.0000 0.0000
                    }
                }
            }
        }
    }
    JOINT Spine
    {
        OFFSET -2.6700 -0.2500 10.9000
        CHANNELS 3 Zrotation Yrotation Xrotation
        JOINT Spine1
        {
            OFFSET 0.1100 0.5500 13.5200
            CHANNELS 3 Zrotation Yrotation Xrotation
            JOINT Spine2
            {
                OFFSET 2.5400 0.1500 5.2900
                CHANNELS 3 Zrotation Yrotation Xrotation
                JOINT Neck
                {
                    OFFSET -4.2900 -0.2800 21.3900
                    CHANNELS 3 Zrotation Yrotation Xrotation
                    JOINT Head
                    {
                        OFFSET 5.1300 0.5200 6.5000
                        CHANNELS 3 Zrotation Yrotation Xrotation
                        End Site
                        {
                            OFFSET 0.0000 0.0000 0.0000
                        }
                    }
                }
                JOINT LeftShoulder
                {
                    OFFSET -3.4100 7.8800 12.1700
                    CHANNELS 3 Zrotation Yrotation Xrotation
                    JOINT LeftArm
                    {
                        OFFSET -0.8900 9.1000 3.0500
                        CHANNELS 3 Zrotation Yrotation Xrotation
                        JOINT LeftForeArm
                        {
                            OFFSET -2.7500 25.9600 -1.2800
                            CHANNELS 3 Zrotation Yrotation Xrotation
                            JOINT LeftHand
                            {
                                OFFSET -1.4900 8.4000 -0.8200
                                CHANNELS 3 Zrotation Yrotation Xrotation
                                End Site
                                {
                                    OFFSET 0.0000 0.0000 0.0000
                                }
                            }
                        }
                    }
                }
                JOINT RightShoulder
                {
                    OFFSET -3.8600 -8.1800 11.8800
                    CHANNELS 3 Zrotation Yrotation Xrotation
                    JOINT RightArm
                    {
                        OFFSET -0.9100 -9.6000 3.2600
                        CHANNELS 3 Zrotation Yrotation Xrotation
                        JOINT RightForeArm
                        {
                            OFFSET -2.1400 -25.3700 -1.3300
                            CHANNELS 3 Zrotation Yrotation Xrotation
                            JOINT RightHand
                            {
                                OFFSET -1.0300 -8.4600 -0.6100
                                CHANNELS 3 Zrotation Yrotation Xrotation
                                End Site
                                {
                                    OFFSET 0.0000 0.0000 0.0000
                                }
                            }
                        }
                    }
                }
            }
        }
    }
}
MOTION
Frames: 8
Frame Time: 0.016667
-0.216002 -0.277933 0.958002 53.227726 9.827768 3.042221 -7.873655 -9.865189 -1.630724 -4.242121 4.202649 -7.945627 14.713791 -7.993111 2.313009 -17.126464 -3.166747 -14.243861 1.376215 -16.791098 -5.825737 7.060943 0.357284 -1.929089 2.399269 7.053448 21.397148 0.822824 6.673808 0.062485 -3.378758 17.481586 7.179171 -4.374047 3.031786 13.184764 -0.438246 1.357504 2.131796 3.660459 -8.013771 -1.104763 -4.564216 -1.719450 1.182787 -31.407592 -15.725667 11.704300 -27.031414 -14.804635 3.867244 -24.913258 -25.010183 19.580701 5.004732 30.284935 23.999100 19.114021 2.466770 11.983089 25.680230 -1.116300 51.083553 20.850994 6.120521 -4.972089 0.704910 -6.019498 8.354947
-0.221079 -0.278067 0.954484 53.082295 10.548406 2.724769 -7.415238 -12.760156 -1.448452 -1.394617 3.407842 -7.371007 16.555510 -4.610985 1.764544 -16.173425 -1.420669 -12.133641 0.952846 -18.256389 -5.306261 6.080647 -1.442537 -1.884847 4.340593 7.712011 18.508754 -2.434683 7.245290 -0.986742 -3.548577 20.370457 8.398424 -5.880537 1.384622 14.317243 -1.420088 2.106652 2.164794 2.697636 -7.570823 0.675365 -6.049342 3.452644 1.003604 -30.830826 -15.194703 13.892377 -25.281846 -16.489615 7.456527 -15.801941 -28.506386 18.032583 4.990197 30.158641 26.127775 17.092984 2.999599 11.977833 27.755042 -1.040320 52.675813 24.088591 8.856481 -7.800787 1.113283 -3.487408 5.909291
-0.225013 -0.276863 0.949841 53.540342 10.779468 2.471210 -7.415238 -12.760156 -1.448452 -1.394617 3.407842 -7.371007 16.555510 -4.610985 1.764544 -16.173425 -1.420669 -12.133641 0.952846 -18.256389 -5.306261 6.080647 -1.442537 -1.884847 4.340593 7.712011 18.508754 -2.434683 7.245290 -0.986742 -3.548577 20.370457 8.398424 -5.880537 1.384622 14.317243 -1.420088 2.106652 2.164794 2.697636 -7.570823 0.675365 -6.049342 3.452644 1.003604 -30.830826 -15.194703 13.892377 -25.281846 -16.489615 7.456527 -15.801941 -28.506386 18.032583 4.990197 30.158641 26.127775 17.092984 2.999599 11.977833 27.755042 -1.040320 52.675813 24.088591 8.856481 -7.800787 1.113283 -3.487408 5.909291
-0.228185 -0.275062 0.944182 54.120476 10.961297 2.226409 -6.610500 -13.751971 -1.945971 0.892517 2.064216 -6.501694 18.333281 -1.581256 0.793425 -18.886913 -1.938657 -10.947251 0.341544 -17.322230 -4.802833 5.564908 -3.994666 -2.323678 5.543180 8.319885 14.822473 -3.887156 7.189822 -4.703071 -3.836351 22.044890 10.329560 -7.313390 0.366176 15.154627 -2.243303 2.500767 2.231788 1.188263 -5.624215 1.948492 -7.115110 7.477176 1.012141 -29.139787 -14.118300 14.483848 -24.064027 -17.633470 9.401035 -9.368587 -31.397385 15.789167 3.969168 30.689075 27.503817 14.709321 2.878748 12.086677 28.089685 0.108087 53.082076 27.703045 10.368645 -9.734767 2.404673 1.031334 2.608790
-0.231217 -0.272628 0.939949 54.325771 10.861054 1.884114 -6.610500 -13.751971 -1.945971 0.892517 2.064216 -6.501694 18.333281 -1.581256 0.793425 -18.886913 -1.938657 -10.947251 0.341544 -17.322230 -4.802833 5.564908 -3.994666 -2.323678 5.543180 8.319885 14.822473 -3.887156 7.189822 -4.703071 -3.836351 22.044890 10.329560 -7.313390 0.366176 15.154627 -2.243303 2.500767 2.231788 1.188263 -5.624215 1.948492 -7.115110 7.477176 1.012141 -29.139787 -14.118300 14.483848 -24.064027 -17.633470 9.401035 -9.368587 -31.397385 15.789167 3.969168 30.689075 27.503817 14.709321 2.878748 12.086677 28.089685 0.108087 53.082076 27.703045 10.368645 -9.734767 2.404673 1.031334 2.608790
-0.234662 -0.270183 0.937904 54.733298 10.939746 1.518302 -5.246064 -12.760411 -2.790450 1.879671 0.444937 -6.042168 19.253524 -4.740491 0.661449 -22.737338 -4.632243 -9.971892 0.105784 -16.491356 -4.151254 5.898234 -5.356144 -2.507185 5.276475 9.282932 10.503879 -5.684757 4.580397 -3.880346 -3.652660 23.001252 12.509163 -7.635036 0.092506 15.906022 -2.403438 2.513919 2.380372 -0.492507 -2.701906 2.351093 -7.777883 9.401082 1.305689 -27.422220 -13.293257 13.594257 -22.887526 -19.315413 10.621348 -4.660580 -31.525357 12.301700 2.909966 30.928153 25.452248 13.273430 3.132050 12.435488 26.516579 0.584701 50.922267 29.987671 10.971702 -9.089372 3.138073 4.818428 -0.613000
-0.237402 -0.268068 0.937170 55.155395 10.515020 1.425687 -5.246064 -12.760411 -2.790450 1.879671 0.444937 -6.042168 19.253524 -4.740491 0.661449 -22.737338 -4.632243 -9.971892 0.105784 -16.491356 -4.151254 5.898234 -5.356144 -2.507185 5.276475 9.282932 10.503879 -5.684757 4.580397 -3.880346 -3.652660 23.001252 12.509163 -7.635036 0.092506 15.906022 -2.403438 2.513919 2.380372 -0.492507 -2.701906 2.351093 -7.777883 9.401082 1.305689 -27.422220 -13.293257 13.594257 -22.887526 -19.315413 10.621348 -4.660580 -31.525357 12.301700 2.909966 30.928153 25.452248 13.273430 3.132050 12.435488 26.516579 0.584701 50.922267 29.987671 10.971702 -9.089372 3.138073 4.818428 -0.613000
-0.239072 -0.265787 0.936737 55.503720 9.934119 1.475982 -4.757468 -10.659878 -4.132026 2.518469 -1.499945 -4.769493 17.645123 -3.389456 2.655017 -23.747346 -5.807638 -8.098181 -0.287244 -15.833188 -3.743059 4.994558 -3.758078 -2.859771 3.786766 8.019240 7.513812 -5.629272 4.068005 -1.576236 -3.475096 24.037871 13.529577 -7.583948 -0.101510 16.391698 -2.664111 2.901799 2.843855 -2.473298 0.325707 1.997634 -7.567743 10.633604 1.512010 -26.409368 -12.233861 12.363786 -21.519968 -20.903909 10.623417 -0.744987 -30.859534 9.204283 2.207172 31.866865 20.658044 12.516505 3.512353 12.682983 24.335914 0.318625 48.164505 32.639072 10.974544 -9.128179 2.632932 7.311254 -3.896170
